<?xml version="1.0" encoding="utf-8"?>
<!-- Generator: Adobe Illustrator 16.0.0, SVG Export Plug-In . SVG Version: 6.00 Build 0)  -->
<!DOCTYPE svg PUBLIC "-//W3C//DTD SVG 1.1//EN" "http://www.w3.org/Graphics/SVG/1.1/DTD/svg11.dtd">
<svg version="1.1" id="Layer_1" xmlns="http://www.w3.org/2000/svg" xmlns:xlink="http://www.w3.org/1999/xlink" x="0px" y="0px"
	 width="192px" height="192px" viewBox="0 0 192 192" enable-background="new 0 0 192 192" xml:space="preserve">
<g>
	<g>
		<path fill="none" stroke="#E20613" stroke-width="9.3602" stroke-miterlimit="10" d="M126.847,77.349"/>
	</g>
	<path d="M114.448,91.389H55.144V63.306h49.109v-9.362H45.786v46.803h68.663c18.063,0,32.765,14.701,32.765,32.769
		s-14.701,32.769-32.765,32.769H55.144v-28.087h49.106v-9.363H45.786v46.809h68.663c23.226,0,42.123-18.9,42.123-42.127
		S137.674,91.389,114.448,91.389z"/>
	<path d="M106.059,16.543v-0.044H8.854v159.144h9.358V25.857h86.968c18.063,0,32.764,14.701,32.764,32.768
		c0,9.132-3.854,17.92-10.579,24.109l0.09,0.094c3.147,1.022,6.135,2.401,8.906,4.1c6.985-7.711,10.941-17.828,10.941-28.302
		C147.302,35.697,128.876,17.019,106.059,16.543z"/>
	<path fill="#009EE2" d="M156.664,16.499v28.022h28.022V16.499H156.664z M177.852,37.686H163.5V23.333h14.352V37.686z"/>
	<path fill="#FFFFFF" d="M57.593,16.499"/>
</g>
</svg>
